<svg t="1693288836357" class="icon" viewBox="0 0 1024 1024" version="1.1" xmlns="http://www.w3.org/2000/svg" p-id="1145" width="32" height="32"><path d="M406.3 618.9c-7.8-7.8-18-11.7-28.3-11.7H183.2c-22.1 0-40 17.9-40 40s17.9 40 40 40h98.2L77 891.7c-15.6 15.6-15.6 40.9 0 56.6 7.8 7.8 18 11.7 28.3 11.7s20.5-3.9 28.3-11.7l204.5-204.5V842c0 22.1 17.9 40 40 40s40-17.9 40-40V647.2c0-10.2-3.9-20.5-11.8-28.3zM947.9 76.4c-15.6-15.6-40.9-15.6-56.6 0l-203 203v-98.2c0-22.1-17.9-40-40-40s-40 17.9-40 40V376c0 10.2 3.9 20.5 11.7 28.3 7.8 7.8 18 11.7 28.3 11.7h194.8c22.1 0 40-17.9 40-40s-17.9-40-40-40h-98.2l203-203c15.6-15.6 15.6-41 0-56.6zM105.1 551.4c-22.1 0-40-17.9-40-40v-327c0-66.2 53.8-120 120-120H515c22.1 0 40 17.9 40 40s-17.9 40-40 40H185.1c-22.1 0-40 17.9-40 40v327c0 22.1-17.9 40-40 40zM860.9 960.1H511.3c-22.1 0-40-17.9-40-40s17.9-40 40-40h349.5c11 0 20-9 20-20V514.4c0-22.1 17.9-40 40-40s40 17.9 40 40v345.7c0.1 55.1-44.8 100-99.9 100z" p-id="1146"></path></svg>
